<?xml version="1.0" standalone="no"?><!DOCTYPE svg PUBLIC "-//W3C//DTD SVG 1.1//EN" "http://www.w3.org/Graphics/SVG/1.1/DTD/svg11.dtd"><svg t="1626243518361" class="icon" viewBox="0 0 1024 1024" version="1.1" xmlns="http://www.w3.org/2000/svg" p-id="7789" xmlns:xlink="http://www.w3.org/1999/xlink" width="200" height="200"><defs><style type="text/css"></style></defs><path d="M514.46361 5.223978c-279.373849-1.542122-507.021615 224.820372-508.820588 505.932818-1.793856 279.135418 224.400816 506.604106 505.936911 508.784772 278.707676 2.155083 506.521219-224.350674 508.85231-505.902119 2.296299-278.507108-225.182622-507.273349-505.968633-508.815471z m-0.479931 936.50118C276.510126 942.652274 84.493881 751.207034 83.935156 512.966001 83.382571 276.269138 273.469883 85.059258 510.93218 83.449597c237.402945-1.619894 429.711855 189.120288 431.146531 427.617148 1.430582 237.356896-189.780321 429.720042-428.095032 430.658413z" p-id="7790"></path><path d="M883.854635 526.034645c-22.817682 2.670829-23.863501-12.17632-24.382317-28.44382-2.437515-76.135004-28.471448-143.664004-76.172867-202.600301-9.601682-11.858072-9.372461-19.390629 2.391467-27.796066 8.40953-6.012947 9.956769-11.825326 1.753946-20.331047-8.964162-9.287527-14.998599-4.670369-20.542872 2.425235-9.589402 12.261255-16.922415 9.489118-27.752064 0.111541-55.42431-47.948035-119.81176-76.023464-193.115275-81.924871-13.928221-1.12973-21.850657-4.235464-19.699668-20.062942 1.172709-8.616238 0.934279-16.518209-12.154831-16.852829-13.343913-0.335644-15.805988 6.269797-14.516622 16.954137 1.626034 13.446243-3.564175 18.832927-17.59575 19.862373-75.058486 5.53097-140.664693 34.289967-197.062168 83.7351-9.529027 8.359388-15.932878 9.466606-24.533766-0.246617-5.845125-6.605442-11.758812-14.473643-22.231327-3.64297-10.259668 10.595312-3.184529 16.116049 4.052292 22.038945 8.30413 6.795776 11.226692 12.416797 2.939959 22.464641-50.480718 61.137429-76.866668 131.686205-79.171154 210.927967-0.446162 15.529695-4.219091 25.12319-22.073738 23.202445-10.404977-1.11745-12.758582 4.76963-12.076036 14.2127 0.787946 10.929934 6.924713 12.763698 15.597233 10.628058 16.128329-3.987824 20.442588 3.50994 22.845311 18.475793 9.93528 61.763692 35.006282 117.222795 75.419713 165.023474 11.373025 13.446243 16.708544 22.969131-2.045589 33.31885-8.465812 4.671393-5.755074 10.450003-0.759293 16.887622 5.856381 7.543813 10.908444 9.691733 18.458397 2.247181 5.979178-5.90243 12.886495-10.841929 19.290345-16.318664 30.266327-25.860994 29.959336-25.625634 4.587482-57.024761-80.281441-99.347682-100.455923-209.266118-47.27163-326.263785 52.442396-115.365494 147.907655-171.046654 273.29541-178.815596 123.137505 6.046716 218.36945 59.114352 273.117354 171.293272 54.597479 111.857601 40.253796 219.540112-32.578999 320.197626-11.294231 15.60235-36.81651 28.578896-31.397081 46.517453 4.839215 16.028045 28.209482 26.354228 43.148729 39.488363 6.582929 5.799076 11.516288 8.514931 18.709107-0.157589 7.15291-8.629541 7.226588-14.597463-2.403746-20.073175-14.932084-8.484232-12.276604-16.386202-2.161223-28.220738 40.627303-47.533596 66.913992-102.299921 76.974116-164.252925 2.632967-16.2061 6.381337-27.951609 26.7789-21.885449 9.119705 2.716878 11.860119-3.552919 12.585643-11.611456 0.715291-7.978718-0.620124-14.603603-10.247388-13.487175z" p-id="7791"></path><path d="M624.834346 395.434168c-2.488681 1.521656-4.252861 4.213975-6.337335 6.372127h-0.005117c-21.176298 17.546631-42.650379 34.737152-63.389725 52.777018-9.214872 8.013511-16.999163 11.320836-30.400381 8.216125-34.522258-8.005324-63.351863 15.870456-62.389955 51.138704 0.363274 13.359262-3.631714 21.538549-13.618159 28.913517-9.227152 6.830569-17.816784 14.518668-26.517957 22.028712-3.324722 2.871397-9.074679 6.750751-5.571902 10.977006 9.227152 11.107989 18.303878 23.871687 30.436196 30.511921 8.072863 4.425799 12.494569-10.898211 19.59222-16.138562 12.712533-9.411347 17.20587-28.466332 39.201838-27.205619 41.908482 2.413979 63.21167-22.901593 56.528457-65.434292-1.240247-7.90197-0.146333-12.740162 4.860705-18.32946 21.930475-24.444738 43.528376-49.177026 65.250096-73.8121 6.621814-2.926656 13.898545-8.470929 9.227152-14.830776-5.756097-7.810896-11.590989 1.598404-16.866133 4.815679z" p-id="7792"></path></svg>