<?xml version="1.0" standalone="no"?><!DOCTYPE svg PUBLIC "-//W3C//DTD SVG 1.1//EN" "http://www.w3.org/Graphics/SVG/1.1/DTD/svg11.dtd"><svg t="1590771191487" class="icon" viewBox="0 0 1024 1024" version="1.1" xmlns="http://www.w3.org/2000/svg" p-id="1665" xmlns:xlink="http://www.w3.org/1999/xlink" width="200" height="200"><defs><style type="text/css"></style></defs><path d="M77.578 874.328c0 40.037 32.426 72.441 72.465 72.441h724.389c40.004 0 72.461-32.404 72.461-72.441V675.105c0-40.039-32.422-72.448-72.461-72.448H657.107V412.488c0-24.965-20.277-45.278-45.277-45.278-24.967 0-45.262 20.278-45.262 45.278v190.169H150.043c-40.008 0-72.465 32.409-72.465 72.448v199.223m90.541-99.641c0-24.971 20.277-45.25 45.279-45.25 25 0 45.262 20.279 45.262 45.25 0 25.031-20.262 45.277-45.262 45.277-24.97 0-45.279-20.246-45.279-45.277m163.018 0c0-24.971 20.262-45.25 45.262-45.25 24.971 0 45.279 20.279 45.279 45.25 0 25.031-20.279 45.277-45.279 45.277-24.997 0-45.262-20.246-45.262-45.277M611.83 222.351c-105.043 0-190.152 85.121-190.152 190.169 0 25 20.295 45.278 45.266 45.278 24.996 0 45.275-20.278 45.275-45.278 0-55.042 44.533-99.582 99.611-99.582 55.045 0 99.598 44.534 99.598 99.582 0 25 20.291 45.278 45.262 45.278 24.961 0 45.277-20.278 45.277-45.278 0-105.048-85.125-190.169-190.137-190.169m0-144.89c-185.09 0-335.043 149.968-335.043 335.027 0 25.001 20.266 45.28 45.266 45.28 24.967 0 45.275-20.279 45.275-45.28 0-135.087 109.383-244.47 244.471-244.47 135.092 0 244.471 109.382 244.471 244.47 0 25.001 20.283 45.28 45.279 45.28 25 0 45.279-20.279 45.279-45.28 0.029-185.059-149.892-335.027-334.998-335.027" p-id="1666"></path></svg>