<?xml version="1.0" standalone="no"?><!DOCTYPE svg PUBLIC "-//W3C//DTD SVG 1.1//EN" "http://www.w3.org/Graphics/SVG/1.1/DTD/svg11.dtd"><svg t="1626243579058" class="icon" viewBox="0 0 1024 1024" version="1.1" xmlns="http://www.w3.org/2000/svg" p-id="8046" xmlns:xlink="http://www.w3.org/1999/xlink" width="200" height="200"><defs><style type="text/css"></style></defs><path d="M847.0528 62.464c-7.4752-7.4752-17.1008-11.264-28.672-11.264H208.7936c-12.0832 0-23.1424 4.096-30.3104 11.264-8.4992 8.4992-13.0048 18.432-13.0048 28.5696v838.2464c0 10.752 5.0176 22.3232 13.0048 30.4128 8.0896 8.0896 19.6608 13.1072 30.3104 13.1072h609.5872c10.1376 0 20.0704-4.5056 28.672-13.1072 7.2704-7.2704 11.3664-18.3296 11.3664-30.4128V91.0336c0.1024-11.3664-3.7888-20.992-11.3664-28.5696zM775.168 889.4464H248.832V134.5536h526.336v754.8928z" p-id="8047"></path><path d="M664.3712 670.208c19.6608 0 35.5328-15.9744 35.5328-35.5328v-253.952c0-19.6608-15.872-35.5328-35.5328-35.5328-19.6608 0-35.5328 15.872-35.5328 35.5328v253.952c0 19.5584 15.9744 35.5328 35.5328 35.5328z" p-id="8048"></path></svg>