<svg t="1576594368679" class="icon" viewBox="0 0 1024 1024" version="1.1" xmlns="http://www.w3.org/2000/svg" p-id="1192" width="48" height="48"><path d="M510.258 136.478c-59.689 0-116.761 11.361-171.23 34.002-54.364 22.64-101.31 53.136-140.715 91.453-39.359 38.341-70.643 84.086-93.886 137.099-23.273 53.092-34.923 108.682-34.923 166.846 0 59.454 11.811 115.664 35.403 168.711 23.605 53.012 56.372 99.351 98.411 139.006h613.852c42.045-39.653 74.801-86.031 98.426-139.006 23.625-53.088 35.408-109.259 35.408-168.711 0-58.131-11.655-113.754-34.883-166.846-23.263-52.963-54.501-98.719-93.939-137.099-39.301-38.317-86.226-68.812-140.753-91.453-54.373-22.641-111.482-34.002-171.168-34.002v0 0 0M790.671 812.236h-560.823c-64.957-69.718-97.441-151.821-97.441-246.397 0-66.442 16.949-127.927 50.657-184.525 33.811-56.559 79.733-101.301 137.761-134.205 58.066-32.836 121.212-49.301 189.433-49.301 68.195 0 131.341 16.465 189.412 49.301 57.98 32.943 103.965 77.647 137.746 134.205 33.767 56.563 50.683 118.084 50.683 184.525-0.034 94.576-32.527 176.679-97.426 246.397v0 0 0 0M244.619 548.62l-79.645-14.32 7.894-43.134 79.679 14.358-7.929 43.095M768.050 505.484l79.66-14.403 7.86 43.097-79.718 14.442-7.801-43.134M321.409 381.856l-52.166-60.433 34.453-27.754 52.038 60.388-34.324 27.797M699.155 381.856l-34.433-27.797 52.166-60.388 34.4 27.754-52.133 60.433M487.685 228.449h45.237v78.622h-45.237v-78.622M512.217 567.788l-135.767-147.589 75.731 180.221c-13.094 23.003-12.699 45.677 1.053 68.043 9.76 15.339 23.87 25.104 42.277 29.236 18.301 4.099 35.374 1.249 51.113-8.62 15.721-9.918 25.74-23.665 30.020-41.265 4.281-17.605 1.465-34.041-8.35-49.378-13.138-19.756-31.781-29.981-56.078-30.646v0 0 0M512.217 567.788z" p-id="1193"></path></svg>