<?xml version="1.0" standalone="no"?><!DOCTYPE svg PUBLIC "-//W3C//DTD SVG 1.1//EN" "http://www.w3.org/Graphics/SVG/1.1/DTD/svg11.dtd"><svg t="1626243582216" class="icon" viewBox="0 0 1024 1024" version="1.1" xmlns="http://www.w3.org/2000/svg" p-id="8174" xmlns:xlink="http://www.w3.org/1999/xlink" width="200" height="200"><defs><style type="text/css"></style></defs><path d="M79.872 402.432c-7.168-67.584 3.072-138.24 26.624-205.824L204.8 257.024c-17.408 47.104-20.48 98.304-13.312 145.408l-111.616 0zM154.624 621.568c-36.864-54.272-57.344-114.688-67.584-176.128L198.656 445.44c10.24 40.96 26.624 80.896 51.2 118.784l-95.232 57.344zM303.104 771.072C256.00000001 743.424 211.968 703.488 174.08 655.36l98.304-57.344c23.552 26.624 54.272 51.2 84.992 70.656l-54.272 102.4zM492.544 828.416c-54.272-3.072-104.448-17.408-155.648-36.864L394.24 686.08c30.72 13.312 64.512 20.48 98.304 23.55199999L492.544 828.416zM685.056 790.52800001c-47.104 20.48-101.376 33.792-152.576 36.86399999l-1e-8-118.784c33.792-3.072 64.512-10.24 98.30400001-23.552l54.272 105.47200001zM846.848 655.36c-33.792 47.104-77.824 88.064-124.928 114.688l-57.344-101.376c33.792-20.48 60.416-44.032 88.064-70.65599999L846.848 655.36zM939.008 446.464c-10.24 60.416-33.792 121.856-67.58399999 176.128l-94.20800002-57.344c23.552-36.864 40.96-77.824 51.20000001-118.784L939.008 446.464zM918.528 195.584c23.552 67.584 30.72 138.24 26.624 205.824l-111.616 0c3.072-47.104 0-98.304-13.312-145.408l98.304-60.416zM242.688 496.64000001c60.416-23.552 270.336-84.992 297.984-101.37600001 30.72-17.408 40.96-57.344 23.55200001-84.992-17.408-30.72-54.272-40.96-84.99200001-23.552-30.72 17.408-186.368 165.888-236.544 209.92000001zM479.23199999 358.4c26.624 44.032 91.136 7.168 64.51200001-36.864-24.576-40.96-89.088-4.096-64.51200001 36.864z" fill="" p-id="8175"></path></svg>