<?xml version="1.0" standalone="no"?><!DOCTYPE svg PUBLIC "-//W3C//DTD SVG 1.1//EN" "http://www.w3.org/Graphics/SVG/1.1/DTD/svg11.dtd"><svg t="1590771202450" class="icon" viewBox="0 0 1024 1024" version="1.1" xmlns="http://www.w3.org/2000/svg" p-id="1784" xmlns:xlink="http://www.w3.org/1999/xlink" width="200" height="200"><defs><style type="text/css"></style></defs><path d="M720.2688 806.7456 571.5072 806.7456l0-40.832c149.2928-27.8848 262.1888-158.7904 262.1888-316.224 0-132.0896-79.5008-245.3376-193.2672-294.8928-0.0192 0.0256-0.0384 0.0512-0.064 0.0832-39.3216-17.2032-82.688-26.88-128.3648-26.88-45.6832 0-89.0432 9.6768-128.3648 26.8736l-0.064-0.0768C269.8048 204.352 190.304 317.6 190.304 449.6896c0 157.44 112.896 288.3392 262.1888 316.224l0 40.832L303.7312 806.7456c-28.5312 0-29.7728 29.7344-29.7728 29.7344l0 59.52 476.0832 0 0-59.52C750.0352 820.1024 736.6848 806.7456 720.2688 806.7456L720.2688 806.7456zM619.5136 178.5984C591.3344 204.928 553.6384 221.1392 512 221.1392s-79.3344-16.2112-107.5136-42.5344c33.3056-13.344 69.5232-20.8704 107.5136-20.8704S586.208 165.2544 619.5136 178.5984L619.5136 178.5984zM353.92 449.6896c0-87.3216 70.7072-158.048 158.08-158.048 87.3216 0 158.08 70.7328 158.08 158.048 0 87.3344-70.7648 158.0736-158.08 158.0736C424.6272 607.7632 353.92 537.024 353.92 449.6896L353.92 449.6896zM595.6864 449.6896c0-46.2464-37.4528-83.6544-83.6864-83.6544-15.9232 0-30.6368 4.672-43.3024 12.3776 3.9488-1.2352 8.0512-2.048 12.384-2.048 23.4432 0 42.4256 18.9888 42.4256 42.4384 0 23.424-18.976 42.4-42.4256 42.4-23.456 0-42.4128-18.9824-42.4128-42.4 0-4.3584 0.8384-8.4544 2.0544-12.4032-7.7312 12.6656-12.4032 27.3728-12.4032 43.3024 0 46.2656 37.4144 83.68 83.68 83.68C558.24 533.3696 595.6864 495.9552 595.6864 449.6896L595.6864 449.6896zM595.6864 449.6896" p-id="1785"></path></svg>