<?xml version="1.0" standalone="no"?><!DOCTYPE svg PUBLIC "-//W3C//DTD SVG 1.1//EN" "http://www.w3.org/Graphics/SVG/1.1/DTD/svg11.dtd"><svg t="1590386473335" class="icon" viewBox="0 0 1024 1024" version="1.1" xmlns="http://www.w3.org/2000/svg" p-id="6363" xmlns:xlink="http://www.w3.org/1999/xlink" width="81" height="81"><defs><style type="text/css"></style></defs><path d="M659.2 640h115.2l185.6 198.4v185.6H64v-185.6l179.2-198.4h121.6l64 128h51.2l-51.2-128h166.4l-51.2 128h51.2l64-128z m64 128H300.8l-108.8 128h640l-108.8-128zM512 448c88.3648 0 160-71.6352 160-160S600.3648 128 512 128 352 199.6352 352 288s71.6352 160 160 160z m0 128c-159.0592 0-288-128.9408-288-288S352.9408 0 512 0s288 128.9408 288 288-128.9408 288-288 288z m-211.2 448h128l51.2-128H326.4l-25.6 128z m300.8 0h128l-32-128H550.4l51.2 128z m-121.6-256l-51.2 256h172.8l-57.6-256H480z" p-id="6364"></path></svg>