<?xml version="1.0" standalone="no"?><!DOCTYPE svg PUBLIC "-//W3C//DTD SVG 1.1//EN" "http://www.w3.org/Graphics/SVG/1.1/DTD/svg11.dtd"><svg t="1590386297762" class="icon" viewBox="0 0 1024 1024" version="1.1" xmlns="http://www.w3.org/2000/svg" p-id="5947" xmlns:xlink="http://www.w3.org/1999/xlink" width="81" height="81"><defs><style type="text/css"></style></defs><path d="M512 686.8c60.2 0 116.8-23.4 159.3-66 42.6-42.6 66-99.2 66-159.3s-23.4-116.8-66-159.3c-42.6-42.6-99.2-66-159.3-66s-116.8 23.4-159.3 66c-42.6 42.6-66 99.2-66 159.3s23.4 116.8 66 159.3c42.5 42.5 99.1 66 159.3 66z m0-430.7c113.2 0 205.3 92.1 205.3 205.3S625.2 666.8 512 666.8s-205.4-92.1-205.4-205.3S398.8 256.1 512 256.1z" fill="" p-id="5948"></path><path d="M512 522.2c52.2 0 94.6-42.4 94.6-94.6S564.2 333 512 333s-94.6 42.4-94.6 94.6 42.4 94.6 94.6 94.6z m0-169.2c41.1 0 74.6 33.5 74.6 74.6s-33.5 74.6-74.6 74.6-74.6-33.5-74.6-74.6S470.9 353 512 353zM658.4 678.4c-1.4-5.3-6.9-8.5-12.3-7-5.3 1.4-8.5 6.9-7 12.3l11.8 43.6c2.9 10.9 0.8 22.8-5.6 31.2-4.7 6.1-11 9.5-17.8 9.5H396.4c-6.8 0-13.1-3.4-17.8-9.5-6.4-8.4-8.6-20.3-5.6-31.2l11.8-43.6c1.4-5.3-1.7-10.8-7-12.3-5.3-1.4-10.8 1.7-12.3 7L353.8 722c-4.6 17-1.2 35.2 9 48.6 8.4 11 20.7 17.4 33.6 17.4h231.1c12.9 0 25.2-6.3 33.6-17.4 10.3-13.4 13.6-31.6 9-48.6l-11.7-43.6z" fill="" p-id="5949"></path><path d="M512 288.4m-23.4 0a23.4 23.4 0 1 0 46.8 0 23.4 23.4 0 1 0-46.8 0Z" fill="" p-id="5950"></path></svg>