<?xml version="1.0" standalone="no"?><!DOCTYPE svg PUBLIC "-//W3C//DTD SVG 1.1//EN" "http://www.w3.org/Graphics/SVG/1.1/DTD/svg11.dtd"><svg t="1573716035408" class="icon" viewBox="0 0 1024 1024" version="1.1" xmlns="http://www.w3.org/2000/svg" p-id="2075" xmlns:xlink="http://www.w3.org/1999/xlink" width="32" height="32"><defs><style type="text/css"></style></defs><path d="M512.9 707.1c-19.8 0-31.2 11.6-31.2 31.5 0 20 11.5 30.3 31.2 30.3 19.8 0 30.1-10.4 30.1-30.3 0.1-19.9-10.2-31.5-30.1-31.5z m406.8 81.8l-353.6-618C555 151.5 535.1 140 513 140s-42 11.6-53.1 30.9l-353.7 618c-11.1 19.4-11.1 42.5 0 61.8 11.1 19.4 31 30.9 53.1 30.9h707.1c22.2 0 42-11.6 53.1-30.9 11.3-19.2 11.3-42.3 0.2-61.8z m-780.4 41L513.1 182l373.7 647.9H139.3zM479 444.4l15.6 221.4c0.5 6.6 8.7 11.9 18.3 11.9 9.8-0.1 18-5.3 18.5-11.9L547 444.4c1.7-24.9-13.4-46.9-34-46.9s-35.8 22-34 46.9z" p-id="2076"></path></svg>