<?xml version="1.0" encoding="utf-8"?>
<!-- Svg Vector Icons : http://www.sfont.cn -->
<!DOCTYPE svg PUBLIC "-//W3C//DTD SVG 1.1//EN" "http://www.w3.org/Graphics/SVG/1.1/DTD/svg11.dtd">
<svg version="1.1" xmlns="http://www.w3.org/2000/svg" xmlns:xlink="http://www.w3.org/1999/xlink" x="0px" y="0px" viewBox="0 0 1000 1000" enable-background="new 0 0 1000 1000" xml:space="preserve">
<metadata> Svg Vector Icons : http://www.sfont.cn </metadata>
<g><path d="M459.5,848.8c-15-32-22.5-66.6-22.5-103.9H255.7c-17,0-31.5-5.9-43.6-17.6c-12.1-11.7-18.1-26.1-18.1-43.1s6-31.5,18.1-43.6c12.1-12.1,26.6-18.1,43.6-18.1h212.7c21.6-38.5,51.4-69.4,89.7-92.6c38.2-23.2,80.9-34.8,127.9-34.8c22.2,0,43.6,2.8,64.2,8.3c20.6,5.6,39.7,13.6,57.3,24V255H664.3c-17.6,0-33-4.1-46.1-12.3c-13.1-8.2-23.9-18.3-32.3-30.4c-8.5-12.1-14.7-25.3-18.6-39.7c-3.9-14.4-5.9-27.8-5.9-40.2V10H258.8h-71.8h-78.9c-9.4,0-18.8,3.6-26,10.8c-7.2,7.2-10.8,16.6-10.8,26v89.7v40.2v589.2v38v90.6c0,9.4,3.6,18.8,10.8,26c7.2,7.2,16.6,10.8,26,10.8h89.7h32.9h290.5C495.1,908.3,474.5,880.8,459.5,848.8z M623.2,377.5c17,0,31.5,5.9,43.6,17.6c12.1,11.7,18.1,26.1,18.1,43.1c0,17-6,31.5-18.1,43.6c-12.1,12.1-26.6,18.1-43.6,18.1H255.7c-17,0-31.5-6.1-43.6-18.1c-12.1-12.1-18.1-26.6-18.1-43.6c0-17,6-31.4,18.1-43.1c12.1-11.8,26.6-17.6,43.6-17.6H623.2z"/><path d="M928.4,954.2c-1-7.5-6-16.8-15.2-27.9l-80.3-80.4c11.1-17.6,19.1-36.6,24-56.8c4.9-20.3,6.6-40.7,4.9-61.3c-1.6-20.6-6.7-40.7-15.2-60.3c-8.5-19.6-20.6-37.6-36.2-53.9c-17.7-17.6-37.8-31-60.3-40.2c-22.5-9.1-45.6-13.7-69.1-13.7c-23.5,0-46.4,4.6-68.6,13.7c-22.2,9.1-42.1,22.5-59.8,40.2c-17.6,18.3-31,38.7-40.2,61.3c-9.1,22.5-13.7,45.6-13.7,69.1c0,23.5,4.6,46.7,13.7,69.6c9.1,22.8,22.5,43.1,40.2,60.7c15.7,16.3,33.2,28.7,52.4,37.2c19.3,8.5,39,13.6,59.3,15.2c20.3,1.6,40.7,0,61.2-4.9c20.6-4.9,39.7-12.9,57.3-24l83.3,80.3c9.1,7.2,18.3,11.1,27.4,11.8c9.1,0.6,17.7-3.6,25.5-12.8C926.3,969.4,929.4,961.7,928.4,954.2z M791.2,791.5c-6.2,14.7-14.7,27.4-25.5,38.2c-10.8,10.8-23.4,19.5-37.8,26c-14.4,6.6-29.7,9.8-46,9.8c-17,0-32.7-3.3-47-9.8c-14.4-6.5-26.9-15.2-37.7-26c-10.8-10.8-19.3-23.5-25.5-38.2c-6.2-14.7-9.3-30.6-9.3-47.5c0-16.3,3.1-31.9,9.3-46.6c6.2-14.7,14.7-27.6,25.5-38.7c10.8-11.1,23.4-19.8,37.7-26c14.4-6.2,30.1-9.3,47-9.3c16.3,0,31.7,3.1,46,9.3c14.4,6.2,27,14.9,37.8,26s19.3,24,25.5,38.7c6.2,14.7,9.3,30.2,9.3,46.6C800.5,761,797.4,776.8,791.2,791.5z"/><path d="M807.4,192.3v-15.7V46.7c0-9.4-3.6-18.8-10.8-26c-7.2-7.2-16.6-10.8-26-10.8H626.1h-2v120.5v-11.7c0,18.8,7.2,37.6,21.5,52c14.4,14.4,33.2,21.5,52,21.5h0L807.4,192.3L807.4,192.3z"/></g>
</svg>