<?xml version="1.0" standalone="no"?><!DOCTYPE svg PUBLIC "-//W3C//DTD SVG 1.1//EN" "http://www.w3.org/Graphics/SVG/1.1/DTD/svg11.dtd"><svg t="1626243511545" class="icon" viewBox="0 0 1024 1024" version="1.1" xmlns="http://www.w3.org/2000/svg" p-id="7660" xmlns:xlink="http://www.w3.org/1999/xlink" width="200" height="200"><defs><style type="text/css"></style></defs><path d="M969.110528 945.979392 941.2608 945.979392 941.2608 77.570048l27.849728 0c14.35136 0 25.984-11.633664 25.984-25.985024S983.461888 25.6 969.110528 25.6L54.890496 25.6c-14.35136 0-25.985024 11.633664-25.985024 25.985024s11.633664 25.985024 25.985024 25.985024l27.849728 0 0 868.409344L54.890496 945.979392c-14.35136 0-25.985024 11.63264-25.985024 25.984s11.633664 25.985024 25.985024 25.985024l452.29568 0c1.5616 0.292864 3.16928 0.451584 4.814848 0.451584s3.253248-0.15872 4.814848-0.451584l452.294656 0c14.35136 0 25.984-11.633664 25.984-25.985024S983.461888 945.979392 969.110528 945.979392zM486.016 945.979392 134.709248 945.979392 134.709248 77.570048l351.306752 0L486.016 945.979392zM889.291776 945.979392 537.986048 945.979392 537.986048 77.570048l351.305728 0L889.291776 945.979392z" p-id="7661"></path><path d="M226.322432 455.185408c4.831232 3.956736 10.658816 5.883904 16.45056 5.883904 7.520256 0 14.980096-3.248128 20.117504-9.520128l21.48864-26.233856 0 246.552576c0 14.35136 11.63264 25.985024 25.984 25.985024s25.985024-11.633664 25.985024-25.985024L336.34816 425.315328l21.487616 26.233856c9.092096 11.103232 25.464832 12.730368 36.56704 3.636224 11.102208-9.09312 12.730368-25.464832 3.636224-36.56704l-67.57376-82.497536c-4.93568-6.02624-12.3136-9.519104-20.102144-9.519104-7.788544 0-15.167488 3.492864-20.102144 9.519104l-67.574784 82.497536C213.592064 429.719552 215.220224 446.091264 226.322432 455.185408z" p-id="7662"></path><path d="M693.535744 688.333824c4.93568 6.02624 12.312576 9.519104 20.102144 9.519104s15.167488-3.492864 20.10112-9.519104l67.575808-82.497536c9.094144-11.102208 7.46496-27.47392-3.636224-36.568064-11.099136-9.091072-27.471872-7.465984-36.568064 3.637248l-21.48864 26.233856L739.621888 352.584704c0-14.35136-11.63264-25.984-25.984-25.984s-25.985024 11.63264-25.985024 25.984l0 246.552576-21.487616-26.232832c-9.092096-11.103232-25.465856-12.731392-36.56704-3.637248-11.102208 9.09312-12.730368 25.465856-3.636224 36.568064L693.535744 688.333824z" p-id="7663"></path></svg>